<svg width="39" height="39" viewBox="0 0 39 39" fill="none" xmlns="http://www.w3.org/2000/svg">
<path d="M25.625 19.5533C25.625 20.7324 25.2658 21.885 24.5928 22.8654C23.9197 23.8458 22.9631 24.6099 21.8439 25.0612C20.7247 25.5124 19.4932 25.6305 18.3051 25.4004C17.1169 25.1704 16.0256 24.6026 15.169 23.7688C14.3124 22.9351 13.729 21.8728 13.4927 20.7164C13.2564 19.5599 13.3777 18.3612 13.8412 17.2719C14.3048 16.1825 15.0899 15.2514 16.0971 14.5964C17.1044 13.9413 18.2886 13.5916 19.5 13.5916C21.1239 13.5935 22.6807 14.2222 23.829 15.3398C24.9772 16.4574 25.6231 17.9727 25.625 19.5533ZM38.6406 11.356V27.7506C38.6374 30.5166 37.507 33.1684 35.4976 35.1243C33.4881 37.0802 30.7637 38.1804 27.9219 38.1835H11.0781C8.23633 38.1804 5.51186 37.0802 3.50241 35.1243C1.49295 33.1684 0.362617 30.5166 0.359375 27.7506V11.356C0.362617 8.59 1.49295 5.93818 3.50241 3.98231C5.51186 2.02644 8.23633 0.926251 11.0781 0.923096H27.9219C30.7637 0.926251 33.4881 2.02644 35.4976 3.98231C37.507 5.93818 38.6374 8.59 38.6406 11.356ZM28.6875 19.5533C28.6875 17.7846 28.1487 16.0557 27.1391 14.5851C26.1296 13.1145 24.6947 11.9684 23.0159 11.2915C21.3371 10.6147 19.4898 10.4376 17.7076 10.7826C15.9254 11.1277 14.2884 11.9794 13.0035 13.23C11.7186 14.4806 10.8435 16.074 10.489 17.8087C10.1345 19.5434 10.3165 21.3414 11.0119 22.9755C11.7072 24.6095 12.8848 26.0061 14.3957 26.9887C15.9066 27.9713 17.6829 28.4958 19.5 28.4958C21.9358 28.4931 24.2711 27.5501 25.9935 25.8737C27.7159 24.1972 28.6848 21.9242 28.6875 19.5533ZM31.75 9.8656C31.75 9.42343 31.6153 8.9912 31.3629 8.62355C31.1105 8.2559 30.7518 7.96936 30.3321 7.80015C29.9124 7.63094 29.4506 7.58667 29.005 7.67293C28.5595 7.75919 28.1502 7.97211 27.829 8.28477C27.5078 8.59743 27.289 8.99578 27.2004 9.42945C27.1118 9.86312 27.1572 10.3126 27.3311 10.7211C27.5049 11.1296 27.7993 11.4788 28.177 11.7245C28.5548 11.9701 28.9988 12.1012 29.4531 12.1012C30.0623 12.1012 30.6465 11.8657 31.0773 11.4464C31.508 11.0272 31.75 10.4585 31.75 9.8656Z" fill="white" fill-opacity="0.5"/>
</svg>
