<svg width="38" height="30" viewBox="0 0 38 30" fill="none" xmlns="http://www.w3.org/2000/svg">
<path d="M38 7.976V24.75C38 27.65 35.65 30 32.75 30H5.25C3.85761 30 2.52226 29.4469 1.53769 28.4623C0.553123 27.4777 0 26.1424 0 24.75V7.976L18.398 18.096C18.773 18.302 19.228 18.302 19.602 18.096L38 7.975V7.976ZM32.75 2.25783e-08C34.1205 0.000127355 35.4366 0.536153 36.4172 1.49358C37.3978 2.451 37.9651 3.75391 37.998 5.124L19 15.574L0.00199986 5.123L0.00400019 5.033C0.0600027 3.67926 0.637207 2.39958 1.61491 1.46158C2.59261 0.523571 3.8951 -0.000125553 5.25 2.25783e-08H32.75Z" fill="white" fill-opacity="0.5"/>
</svg>
