<svg width="41" height="40" viewBox="0 0 41 40" fill="none" xmlns="http://www.w3.org/2000/svg">
<path d="M26.5179 0.833374H14.5016C3.52712 0.833374 0.916656 3.38829 0.916656 14.1101V25.8708C0.916656 36.6099 3.50753 39.1667 14.482 39.1667H26.4984C37.4709 39.1667 40.0833 36.631 40.0833 25.89V14.1293C40.0833 3.38829 37.4925 0.833374 26.5179 0.833374ZM32.5359 28.1842H29.6787C28.5977 28.1842 28.2726 27.3275 26.3339 25.43C24.6419 23.8334 23.9271 23.634 23.4982 23.634C22.9068 23.634 22.7442 23.7931 22.7442 24.5924V27.107C22.7442 27.7875 22.519 28.1861 20.7037 28.1861C18.9418 28.0702 17.2333 27.5464 15.7189 26.6576C14.2045 25.7689 12.9274 24.5408 11.993 23.0744C9.77453 20.3719 8.23092 17.2 7.48491 13.8111C7.48491 13.3914 7.64745 13.0119 8.46407 13.0119H11.3193C12.0537 13.0119 12.3181 13.332 12.6059 14.0699C13.9924 18.0642 16.3581 21.5372 17.3177 21.5372C17.6859 21.5372 17.8464 21.3781 17.8464 20.4792V16.366C17.725 14.4896 16.7067 14.3305 16.7067 13.652C16.7198 13.4731 16.8036 13.3061 16.9403 13.1866C17.077 13.0671 17.256 13.0044 17.4391 13.0119H21.9276C22.5406 13.0119 22.7442 13.3109 22.7442 14.0296V19.5803C22.7442 20.1802 23.0086 20.3795 23.1927 20.3795C23.5609 20.3795 23.8448 20.1802 24.5185 19.5209C25.9654 17.7939 27.1476 15.8698 28.0278 13.8092C28.1178 13.5617 28.288 13.3498 28.5126 13.2058C28.7371 13.0619 29.0036 12.9937 29.2714 13.0119H32.1286C32.9844 13.0119 33.1665 13.4316 32.9844 14.0296C31.9455 16.3074 30.66 18.4697 29.1499 20.4792C28.8425 20.9392 28.7191 21.1788 29.1499 21.7174C29.4339 22.1371 30.4346 22.9555 31.1083 23.7337C32.0873 24.6894 32.9002 25.7952 33.5151 27.0074C33.7599 27.7855 33.3506 28.1861 32.5359 28.1861V28.1842Z" fill="white" fill-opacity="0.5"/>
</svg>
